# xmcd
#
# Track frame offsets: 
#        150
#        14712
#        31511
#        48105
#        67538
#        82347
#        95983
#        115616
#        131134
#        145873
#        155448
#        171612
#        188966
#
# Disc length: 2782 seconds
#
# Revision: 0
# Processed by: cddbd v1.5.1PL2 Copyright (c) Steve Scherf et al.
# Submitted via: ExactAudioCopy v0.95b3
#
DISCID=b10adc0d
DTITLE=Bill Rodgers - Still Life
DYEAR=2004
DGENRE=Blues
TTITLE0=When Winter Comes
TTITLE1=Do What You Do
TTITLE2=You Alone
TTITLE3=Tonight
TTITLE4=Still Life
TTITLE5=Don't Sing Me Love Songs
TTITLE6=Another Lonely Song
TTITLE7=Eyes Talkin' To Ya
TTITLE8=Goodnight
TTITLE9=Bringing The Blues Back Home
TTITLE10=Fooling Around In Your Mind
TTITLE11=The Usual Story
TTITLE12=A View of the River/ The Witch's Hat
EXTD=
EXTT0=
EXTT1=
EXTT2=
EXTT3=
EXTT4=
EXTT5=
EXTT6=
EXTT7=
EXTT8=
EXTT9=
EXTT10=
EXTT11=
EXTT12=
PLAYORDER=
